<svg width="327" height="40" viewBox="0 0 327 40" fill="none" xmlns="http://www.w3.org/2000/svg">
<rect x="0.5" y="0.5" width="326" height="39" rx="19.5" fill="#3E3E3E"/>
<rect x="0.5" y="0.5" width="326" height="39" rx="19.5" stroke="url(#paint0_linear_1_6733)"/>
<path d="M142.219 18.2536H140.36C140.307 17.9486 140.209 17.6785 140.067 17.4432C139.924 17.2045 139.747 17.0024 139.535 16.8366C139.323 16.6709 139.081 16.5466 138.809 16.4638C138.54 16.3776 138.25 16.3345 137.939 16.3345C137.385 16.3345 136.895 16.4737 136.467 16.7521C136.04 17.0272 135.705 17.4316 135.463 17.9652C135.221 18.4955 135.1 19.1435 135.1 19.9091C135.1 20.688 135.221 21.3442 135.463 21.8778C135.708 22.4081 136.043 22.8092 136.467 23.081C136.895 23.3494 137.384 23.4837 137.934 23.4837C138.239 23.4837 138.524 23.4439 138.789 23.3643C139.058 23.2815 139.298 23.1605 139.51 23.0014C139.725 22.8423 139.906 22.6468 140.052 22.4148C140.201 22.1828 140.304 21.9176 140.36 21.6193L142.219 21.6293C142.15 22.1132 141.999 22.5672 141.767 22.9915C141.538 23.4157 141.238 23.7902 140.867 24.1151C140.496 24.4366 140.062 24.6884 139.565 24.8707C139.067 25.0497 138.516 25.1392 137.909 25.1392C137.014 25.1392 136.215 24.9321 135.513 24.5178C134.81 24.1035 134.257 23.5052 133.852 22.723C133.448 21.9408 133.246 21.0028 133.246 19.9091C133.246 18.812 133.45 17.8741 133.857 17.0952C134.265 16.313 134.82 15.7147 135.523 15.3004C136.225 14.8861 137.021 14.679 137.909 14.679C138.476 14.679 139.003 14.7585 139.49 14.9176C139.977 15.0767 140.411 15.3104 140.793 15.6186C141.174 15.9235 141.487 16.2981 141.732 16.7422C141.981 17.183 142.143 17.6868 142.219 18.2536ZM147.16 25.1491C146.414 25.1491 145.768 24.9851 145.221 24.657C144.674 24.3288 144.25 23.8698 143.948 23.2798C143.65 22.6899 143.501 22.0005 143.501 21.2116C143.501 20.4228 143.65 19.7318 143.948 19.1385C144.25 18.5452 144.674 18.0845 145.221 17.7564C145.768 17.4283 146.414 17.2642 147.16 17.2642C147.906 17.2642 148.552 17.4283 149.099 17.7564C149.646 18.0845 150.068 18.5452 150.367 19.1385C150.668 19.7318 150.819 20.4228 150.819 21.2116C150.819 22.0005 150.668 22.6899 150.367 23.2798C150.068 23.8698 149.646 24.3288 149.099 24.657C148.552 24.9851 147.906 25.1491 147.16 25.1491ZM147.17 23.7074C147.574 23.7074 147.912 23.5964 148.184 23.3743C148.456 23.1489 148.658 22.8473 148.791 22.4695C148.927 22.0916 148.994 21.6707 148.994 21.2067C148.994 20.7393 148.927 20.3168 148.791 19.9389C148.658 19.5578 148.456 19.2545 148.184 19.0291C147.912 18.8037 147.574 18.6911 147.17 18.6911C146.756 18.6911 146.411 18.8037 146.136 19.0291C145.864 19.2545 145.66 19.5578 145.524 19.9389C145.392 20.3168 145.325 20.7393 145.325 21.2067C145.325 21.6707 145.392 22.0916 145.524 22.4695C145.66 22.8473 145.864 23.1489 146.136 23.3743C146.411 23.5964 146.756 23.7074 147.17 23.7074ZM154.146 20.5256V25H152.347V17.3636H154.067V18.6612H154.156C154.332 18.2337 154.612 17.8939 154.996 17.642C155.384 17.3902 155.863 17.2642 156.433 17.2642C156.96 17.2642 157.419 17.3769 157.81 17.6023C158.205 17.8277 158.51 18.1541 158.725 18.5817C158.944 19.0092 159.052 19.5279 159.048 20.1378V25H157.249V20.4162C157.249 19.9058 157.116 19.5064 156.851 19.218C156.589 18.9297 156.226 18.7855 155.762 18.7855C155.447 18.7855 155.167 18.8551 154.922 18.9943C154.68 19.1302 154.489 19.3274 154.35 19.5859C154.214 19.8445 154.146 20.1577 154.146 20.5256ZM164.691 17.3636V18.7557H160.301V17.3636H164.691ZM161.385 15.5341H163.185V22.7031C163.185 22.9451 163.221 23.1307 163.294 23.2599C163.37 23.3859 163.47 23.4721 163.592 23.5185C163.715 23.5649 163.851 23.5881 164 23.5881C164.113 23.5881 164.215 23.5798 164.308 23.5632C164.404 23.5466 164.477 23.5317 164.527 23.5185L164.83 24.9254C164.734 24.9586 164.597 24.995 164.418 25.0348C164.242 25.0746 164.027 25.0978 163.771 25.1044C163.321 25.1177 162.915 25.0497 162.553 24.9006C162.192 24.7481 161.905 24.5128 161.693 24.1946C161.484 23.8764 161.382 23.4787 161.385 23.0014V15.5341ZM166.196 25V17.3636H167.996V25H166.196ZM167.101 16.2798C166.816 16.2798 166.571 16.1854 166.365 15.9964C166.16 15.8042 166.057 15.5739 166.057 15.3054C166.057 15.0336 166.16 14.8033 166.365 14.6143C166.571 14.4221 166.816 14.326 167.101 14.326C167.389 14.326 167.635 14.4221 167.837 14.6143C168.042 14.8033 168.145 15.0336 168.145 15.3054C168.145 15.5739 168.042 15.8042 167.837 15.9964C167.635 16.1854 167.389 16.2798 167.101 16.2798ZM171.646 20.5256V25H169.847V17.3636H171.567V18.6612H171.656C171.832 18.2337 172.112 17.8939 172.496 17.642C172.884 17.3902 173.363 17.2642 173.933 17.2642C174.46 17.2642 174.919 17.3769 175.31 17.6023C175.705 17.8277 176.01 18.1541 176.225 18.5817C176.444 19.0092 176.552 19.5279 176.548 20.1378V25H174.749V20.4162C174.749 19.9058 174.616 19.5064 174.351 19.218C174.089 18.9297 173.726 18.7855 173.262 18.7855C172.947 18.7855 172.667 18.8551 172.422 18.9943C172.18 19.1302 171.989 19.3274 171.85 19.5859C171.714 19.8445 171.646 20.1577 171.646 20.5256ZM183.245 21.7884V17.3636H185.045V25H183.3V23.6428H183.22C183.048 24.0703 182.764 24.42 182.37 24.6918C181.979 24.9635 181.497 25.0994 180.923 25.0994C180.423 25.0994 179.98 24.9884 179.596 24.7663C179.215 24.541 178.916 24.2145 178.701 23.7869C178.486 23.3561 178.378 22.8357 178.378 22.2259V17.3636H180.178V21.9474C180.178 22.4313 180.31 22.8158 180.575 23.1009C180.84 23.3859 181.188 23.5284 181.619 23.5284C181.884 23.5284 182.141 23.4638 182.39 23.3345C182.638 23.2053 182.842 23.013 183.001 22.7578C183.164 22.4993 183.245 22.1761 183.245 21.7884ZM190.276 25.1491C189.51 25.1491 188.849 24.9901 188.292 24.6719C187.739 24.3504 187.313 23.8963 187.015 23.3097C186.716 22.7197 186.567 22.0253 186.567 21.2266C186.567 20.4411 186.716 19.7517 187.015 19.1584C187.316 18.5618 187.737 18.0978 188.278 17.7663C188.818 17.4316 189.452 17.2642 190.182 17.2642C190.652 17.2642 191.096 17.3404 191.514 17.4929C191.935 17.642 192.306 17.8741 192.628 18.1889C192.952 18.5038 193.208 18.9048 193.393 19.392C193.579 19.8759 193.672 20.4527 193.672 21.1222V21.674H187.412V20.4609H191.947C191.943 20.1162 191.869 19.8097 191.723 19.5412C191.577 19.2694 191.373 19.0556 191.111 18.8999C190.853 18.7441 190.551 18.6662 190.206 18.6662C189.839 18.6662 189.515 18.7557 189.237 18.9347C188.959 19.1103 188.742 19.3423 188.586 19.6307C188.433 19.9157 188.355 20.2289 188.352 20.5703V21.6293C188.352 22.0734 188.433 22.4545 188.596 22.7727C188.758 23.0876 188.985 23.3295 189.277 23.4986C189.568 23.6643 189.91 23.7472 190.301 23.7472C190.563 23.7472 190.8 23.7107 191.012 23.6378C191.224 23.5616 191.408 23.4505 191.564 23.3047C191.72 23.1589 191.837 22.9782 191.917 22.7628L193.597 22.9517C193.491 23.3958 193.289 23.7836 192.991 24.1151C192.696 24.4432 192.318 24.6984 191.857 24.8807C191.396 25.0597 190.869 25.1491 190.276 25.1491Z" fill="white"/>
<defs>
<linearGradient id="paint0_linear_1_6733" x1="163.5" y1="0" x2="163.5" y2="40" gradientUnits="userSpaceOnUse">
<stop stop-color="#E5D600"/>
<stop offset="1" stop-color="#DB006D"/>
</linearGradient>
</defs>
</svg>
