<svg width="137" height="31" viewBox="0 0 137 31" fill="none" xmlns="http://www.w3.org/2000/svg">
<path d="M0.354685 2.48H8.35469V30H0.354685V2.48ZM10.0347 2.48H19.3947V8.6H10.0347V2.48ZM10.0347 13.84H17.9147V19.96H10.0347V13.84ZM22.6816 0.279999H30.0816V6.04H22.6816V0.279999ZM22.6816 9.6H30.0816V30H22.6816V9.6ZM45.7947 20.36C45.7947 18.9467 45.7814 18.0133 45.7547 17.56C45.7014 16.8133 45.6347 16.32 45.5547 16.08C45.448 15.8133 45.2614 15.6533 44.9947 15.6C44.728 15.52 44.3014 15.48 43.7147 15.48H43.3147V10.48C44.3547 9.70667 45.7147 9.32 47.3947 9.32C49.7947 9.32 51.408 10.0533 52.2347 11.52C52.608 12.16 52.8614 12.9467 52.9947 13.88C53.128 14.7867 53.1947 15.9067 53.1947 17.24V30H45.7947V20.36ZM34.2347 9.6H41.6347V30H34.2347V9.6Z" fill="#309F00"/>
<path d="M65.7903 17.8H68.5903C68.5903 16.3067 68.4436 15.3467 68.1503 14.92C67.9903 14.68 67.777 14.5333 67.5103 14.48C67.2436 14.4 66.857 14.36 66.3503 14.36H65.7903V9.28H66.3503C68.6436 9.28 70.4036 9.46667 71.6303 9.84C72.8836 10.2133 73.8036 10.8267 74.3903 11.68C74.9236 12.4267 75.2436 13.3867 75.3503 14.56C75.4836 15.7333 75.5503 17.4933 75.5503 19.84V21.44H65.7903V17.8ZM67.1503 30.32C64.697 30.32 62.7636 30.12 61.3503 29.72C59.9636 29.2933 58.9236 28.6267 58.2303 27.72C57.617 26.92 57.217 25.9333 57.0303 24.76C56.8436 23.56 56.7503 21.92 56.7503 19.84C56.7503 17.92 56.817 16.4 56.9503 15.28C57.0836 14.1333 57.3636 13.16 57.7903 12.36C58.2703 11.48 59.0036 10.8 59.9903 10.32C61.0036 9.81333 62.377 9.49333 64.1103 9.36V21.44C64.1103 22.3467 64.1503 23 64.2303 23.4C64.3103 23.7733 64.497 24.0533 64.7903 24.24C65.1103 24.4533 65.6036 24.5733 66.2703 24.6C67.1236 24.6533 68.0303 24.68 68.9903 24.68C70.697 24.68 71.937 24.64 72.7103 24.56L74.7503 24.4V29.56C73.6836 29.88 72.217 30.0933 70.3503 30.2C69.4436 30.28 68.377 30.32 67.1503 30.32ZM94.3359 15.16C93.8293 15.1333 93.1359 15.0667 92.2559 14.96C90.6026 14.8 89.2693 14.72 88.2559 14.72H86.9359V9.28C88.8293 9.28 90.6293 9.41333 92.3359 9.68L94.3359 10.04V15.16ZM88.5359 23.8C88.5359 23.4 88.4693 23.1467 88.3359 23.04C88.2026 22.9333 87.9226 22.8533 87.4959 22.8L83.1759 22.2C82.1093 22.04 81.2426 21.7867 80.5759 21.44C79.9359 21.0933 79.4559 20.6267 79.1359 20.04C78.8159 19.5333 78.6026 18.92 78.4959 18.2C78.3893 17.48 78.3359 16.5867 78.3359 15.52C78.3359 13.3333 78.9893 11.7333 80.2959 10.72C81.3893 9.92 83.0426 9.45333 85.2559 9.32V15.6C85.2559 16 85.3093 16.2667 85.4159 16.4C85.5226 16.5067 85.8559 16.6 86.4159 16.68L91.2159 17.32C91.9093 17.4 92.5093 17.5467 93.0159 17.76C93.5226 17.9467 93.9493 18.24 94.2959 18.64C95.0693 19.4933 95.4559 21.1333 95.4559 23.56C95.4559 26.12 94.8026 27.9067 93.4959 28.92C92.3493 29.7733 90.6959 30.2267 88.5359 30.28V23.8ZM86.8559 30.32C84.7226 30.2933 82.8559 30.16 81.2559 29.92L78.9759 29.56V24.44C80.0426 24.5467 81.4826 24.6533 83.2959 24.76C84.3093 24.8133 85.0293 24.84 85.4559 24.84H86.8559V30.32ZM113.858 15.16C113.351 15.1333 112.658 15.0667 111.778 14.96C110.124 14.8 108.791 14.72 107.778 14.72H106.458V9.28C108.351 9.28 110.151 9.41333 111.858 9.68L113.858 10.04V15.16ZM108.058 23.8C108.058 23.4 107.991 23.1467 107.858 23.04C107.724 22.9333 107.444 22.8533 107.018 22.8L102.698 22.2C101.631 22.04 100.764 21.7867 100.098 21.44C99.4578 21.0933 98.9778 20.6267 98.6578 20.04C98.3378 19.5333 98.1245 18.92 98.0178 18.2C97.9111 17.48 97.8578 16.5867 97.8578 15.52C97.8578 13.3333 98.5111 11.7333 99.8178 10.72C100.911 9.92 102.564 9.45333 104.778 9.32V15.6C104.778 16 104.831 16.2667 104.938 16.4C105.044 16.5067 105.378 16.6 105.938 16.68L110.738 17.32C111.431 17.4 112.031 17.5467 112.538 17.76C113.044 17.9467 113.471 18.24 113.818 18.64C114.591 19.4933 114.978 21.1333 114.978 23.56C114.978 26.12 114.324 27.9067 113.018 28.92C111.871 29.7733 110.218 30.2267 108.058 30.28V23.8ZM106.378 30.32C104.244 30.2933 102.378 30.16 100.778 29.92L98.4978 29.56V24.44C99.5645 24.5467 101.004 24.6533 102.818 24.76C103.831 24.8133 104.551 24.84 104.978 24.84H106.378V30.32ZM126.7 17.8H129.5C129.5 16.3067 129.353 15.3467 129.06 14.92C128.9 14.68 128.686 14.5333 128.42 14.48C128.153 14.4 127.766 14.36 127.26 14.36H126.7V9.28H127.26C129.553 9.28 131.313 9.46667 132.54 9.84C133.793 10.2133 134.713 10.8267 135.3 11.68C135.833 12.4267 136.153 13.3867 136.26 14.56C136.393 15.7333 136.46 17.4933 136.46 19.84V21.44H126.7V17.8ZM128.06 30.32C125.606 30.32 123.673 30.12 122.26 29.72C120.873 29.2933 119.833 28.6267 119.14 27.72C118.526 26.92 118.126 25.9333 117.94 24.76C117.753 23.56 117.66 21.92 117.66 19.84C117.66 17.92 117.726 16.4 117.86 15.28C117.993 14.1333 118.273 13.16 118.7 12.36C119.18 11.48 119.913 10.8 120.9 10.32C121.913 9.81333 123.286 9.49333 125.02 9.36V21.44C125.02 22.3467 125.06 23 125.14 23.4C125.22 23.7733 125.406 24.0533 125.7 24.24C126.02 24.4533 126.513 24.5733 127.18 24.6C128.033 24.6533 128.94 24.68 129.9 24.68C131.606 24.68 132.846 24.64 133.62 24.56L135.66 24.4V29.56C134.593 29.88 133.126 30.0933 131.26 30.2C130.353 30.28 129.286 30.32 128.06 30.32Z" fill="black"/>
</svg>
