<svg width="24" height="24" viewBox="0 0 24 24" fill="none" xmlns="http://www.w3.org/2000/svg">
<path d="M11.4473 2.28943L10.8947 1.57901L10.8947 1.57902L11.4473 2.28943ZM12.5527 2.28943L13.1053 1.57902L13.1053 1.57901L12.5527 2.28943ZM20.6523 8.58923L20.0998 9.29965L20.0998 9.29965L20.6523 8.58923ZM20.209 21.1088L20.8454 21.7452L20.8454 21.7451L20.209 21.1088ZM14.7002 21.8998H13.8002C13.8002 22.3968 14.2031 22.7998 14.7002 22.7998V21.8998ZM12.9004 12.0004L12.9006 11.1004H12.9004V12.0004ZM11.0996 12.0004V11.1004H11.0994L11.0996 12.0004ZM9.2998 21.8998V22.7998C9.79686 22.7998 10.1998 22.3968 10.1998 21.8998H9.2998ZM3.79102 21.1088L3.15459 21.7451L3.15462 21.7452L3.79102 21.1088ZM3.34766 8.58923L3.9002 9.29965L3.90021 9.29965L3.34766 8.58923ZM11.4473 2.28943L11.9998 2.99985H12.0002L12.5527 2.28943L13.1053 1.57901C12.4553 1.07346 11.5447 1.07346 10.8947 1.57901L11.4473 2.28943ZM12.5527 2.28943L12.0002 2.99984L20.0998 9.29965L20.6523 8.58923L21.2049 7.87882L13.1053 1.57902L12.5527 2.28943ZM20.6523 8.58923L20.0998 9.29965L20.1 9.30017H21H21.9C21.9 8.74482 21.6434 8.21991 21.2049 7.87882L20.6523 8.58923ZM21 9.30017H20.1V19.1996H21H21.9V9.30017H21ZM21 19.1996H20.1C20.1 19.6767 19.9102 20.1347 19.5726 20.4724L20.209 21.1088L20.8454 21.7451C21.5203 21.0702 21.9 20.1545 21.9 19.1996H21ZM20.209 21.1088L19.5726 20.4724C19.2349 20.8101 18.777 20.9998 18.2998 20.9998V21.8998V22.7998C19.2548 22.7998 20.1704 22.4202 20.8454 21.7452L20.209 21.1088ZM18.2998 21.8998V20.9998H14.7002V21.8998V22.7998H18.2998V21.8998ZM14.7002 21.8998H15.6002V13.8002H14.7002H13.8002V21.8998H14.7002ZM14.7002 13.8002H15.6002C15.6002 12.3089 14.3912 11.1007 12.9006 11.1004L12.9004 12.0004L12.9002 12.9004C13.3974 12.9005 13.8002 13.3034 13.8002 13.8002H14.7002ZM12.9004 12.0004V11.1004H11.0996V12.0004V12.9004H12.9004V12.0004ZM11.0996 12.0004L11.0994 11.1004C9.60877 11.1007 8.3998 12.3089 8.3998 13.8002H9.2998H10.1998C10.1998 13.3034 10.6026 12.9005 11.0998 12.9004L11.0996 12.0004ZM9.2998 13.8002H8.3998V21.8998H9.2998H10.1998V13.8002H9.2998ZM9.2998 21.8998V20.9998H5.7002V21.8998V22.7998H9.2998V21.8998ZM5.7002 21.8998V20.9998C5.22298 20.9998 4.7651 20.8101 4.42741 20.4724L3.79102 21.1088L3.15462 21.7452C3.82962 22.4202 4.74524 22.7998 5.7002 22.7998V21.8998ZM3.79102 21.1088L4.42745 20.4724C4.08976 20.1347 3.9 19.6767 3.9 19.1996H3H2.1C2.1 20.1545 2.4797 21.0702 3.15459 21.7451L3.79102 21.1088ZM3 19.1996H3.9V9.30017H3H2.1V19.1996H3ZM3 9.30017H3.9L3.9002 9.29965L3.34766 8.58923L2.79511 7.87882C2.35656 8.21991 2.1 8.74482 2.1 9.30017H3ZM3.34766 8.58923L3.90021 9.29965L11.9998 2.99984L11.4473 2.28943L10.8947 1.57902L2.7951 7.87882L3.34766 8.58923Z" fill="black"/>
</svg>
