<svg width="27" height="27" viewBox="0 0 27 27" fill="none" xmlns="http://www.w3.org/2000/svg">
<path d="M23.8612 17.8763C23.1455 19.5688 22.0261 21.0602 20.6009 22.2202C19.1756 23.3802 17.4879 24.1734 15.6852 24.5304C13.8826 24.8874 12.02 24.7974 10.2602 24.2683C8.50035 23.7391 6.89695 22.787 5.59014 21.495C4.28334 20.203 3.31291 18.6106 2.76371 16.8569C2.21451 15.1033 2.10325 13.2418 2.43967 11.4352C2.77608 9.62863 3.54993 7.93196 4.69355 6.49353C5.83717 5.05511 7.31574 3.91873 9 3.18375M24.75 13.5C24.75 12.0226 24.459 10.5597 23.8936 9.19481C23.3283 7.8299 22.4996 6.58971 21.4549 5.54505C20.4103 4.50039 19.1701 3.67172 17.8052 3.10636C16.4403 2.54099 14.9774 2.25 13.5 2.25V13.5H24.75Z" stroke="#1E1E1E" stroke-width="2" stroke-linecap="round" stroke-linejoin="round"/>
</svg>
